<svg width="86" height="37" viewBox="0 0 86 37" fill="none" xmlns="http://www.w3.org/2000/svg">
<path d="M0.502558 10.6298C0.0234525 10.9045 -0.142227 11.5156 0.132503 11.9948C0.407232 12.4739 1.01834 12.6395 1.49744 12.3648L0.502558 10.6298ZM81.7456 36.9671C82.2797 37.1076 82.8266 36.7885 82.9671 36.2544L85.2569 27.5506C85.3974 27.0165 85.0783 26.4696 84.5442 26.3291C84.0101 26.1885 83.4632 26.5076 83.3227 27.0417L81.2873 34.7785L73.5506 32.7431C73.0165 32.6026 72.4696 32.9217 72.3291 33.4558C72.1885 33.9899 72.5076 34.5368 73.0417 34.6773L81.7456 36.9671ZM1.49744 12.3648C17.31 3.29757 31.6242 -0.140449 44.7069 3.32745C57.79 6.79544 69.8953 17.2371 81.1363 36.5039L82.8637 35.4961C71.4858 15.9944 59.0181 5.05189 45.2194 1.39421C31.4203 -2.26356 16.544 1.43131 0.502558 10.6298L1.49744 12.3648Z" fill="#648E38"/>
</svg>
