<svg width="177" height="128" viewBox="0 0 177 128" fill="none" xmlns="http://www.w3.org/2000/svg">
<path d="M3.85522 126.435C3.85522 127.263 3.18364 127.935 2.35522 127.935C1.52679 127.935 0.855217 127.263 0.855218 126.435L3.85522 126.435ZM176.833 12.8121C177.213 13.5483 176.924 14.4531 176.188 14.8329L164.19 21.0222C163.454 21.402 162.549 21.113 162.17 20.3768C161.79 19.6406 162.079 18.7358 162.815 18.356L173.479 12.8544L167.978 2.18989C167.598 1.45366 167.887 0.548929 168.623 0.169131C169.36 -0.21068 170.264 0.0782653 170.644 0.814497L176.833 12.8121ZM0.855218 126.435C0.855243 50.4031 79.5038 -18.7331 175.957 12.0709L175.044 14.9287C80.4961 -15.2669 3.85524 52.4667 3.85522 126.435L0.855218 126.435Z" fill="#648E38"/>
</svg>
