<svg width="32" height="32" viewBox="0 0 32 32" fill="none" xmlns="http://www.w3.org/2000/svg">
<path d="M0 0H27C29.7614 0 32 2.23858 32 5V32H5C2.23858 32 0 29.7614 0 27V0Z" fill="#F0F0F0"/>
<path d="M22.3 9.71C22.2075 9.6173 22.0976 9.54375 21.9766 9.49357C21.8556 9.44339 21.7259 9.41756 21.595 9.41756C21.464 9.41756 21.3343 9.44339 21.2134 9.49357C21.0924 9.54375 20.9825 9.6173 20.89 9.71L16 14.59L11.11 9.7C11.0174 9.60742 10.9075 9.53398 10.7865 9.48387C10.6656 9.43377 10.5359 9.40798 10.405 9.40798C10.274 9.40798 10.1444 9.43377 10.0234 9.48387C9.90247 9.53398 9.79256 9.60742 9.69998 9.7C9.6074 9.79258 9.53396 9.90249 9.48385 10.0235C9.43375 10.1444 9.40796 10.2741 9.40796 10.405C9.40796 10.5359 9.43375 10.6656 9.48385 10.7865C9.53396 10.9075 9.6074 11.0174 9.69998 11.11L14.59 16L9.69998 20.89C9.6074 20.9826 9.53396 21.0925 9.48385 21.2135C9.43375 21.3344 9.40796 21.4641 9.40796 21.595C9.40796 21.7259 9.43375 21.8556 9.48385 21.9765C9.53396 22.0975 9.6074 22.2074 9.69998 22.3C9.79256 22.3926 9.90247 22.466 10.0234 22.5161C10.1444 22.5662 10.274 22.592 10.405 22.592C10.5359 22.592 10.6656 22.5662 10.7865 22.5161C10.9075 22.466 11.0174 22.3926 11.11 22.3L16 17.41L20.89 22.3C20.9826 22.3926 21.0925 22.466 21.2134 22.5161C21.3344 22.5662 21.464 22.592 21.595 22.592C21.7259 22.592 21.8556 22.5662 21.9765 22.5161C22.0975 22.466 22.2074 22.3926 22.3 22.3C22.3926 22.2074 22.466 22.0975 22.5161 21.9765C22.5662 21.8556 22.592 21.7259 22.592 21.595C22.592 21.4641 22.5662 21.3344 22.5161 21.2135C22.466 21.0925 22.3926 20.9826 22.3 20.89L17.41 16L22.3 11.11C22.68 10.73 22.68 10.09 22.3 9.71Z" fill="#636363"/>
</svg>
