<svg width="94" height="155" viewBox="0 0 94 155" fill="none" xmlns="http://www.w3.org/2000/svg">
<path d="M22.5012 2.97069C22.8789 2.23341 22.5875 1.32949 21.8502 0.951726C21.1129 0.573966 20.209 0.865419 19.8312 1.6027L22.5012 2.97069ZM92.9383 145.67C93.5846 145.152 93.6885 144.208 93.1704 143.562L84.7262 133.029C84.208 132.382 83.264 132.278 82.6176 132.797C81.9713 133.315 81.8673 134.259 82.3855 134.905L89.8914 144.268L80.5287 151.774C79.8823 152.292 79.7784 153.236 80.2966 153.882C80.8147 154.529 81.7588 154.633 82.4052 154.115L92.9383 145.67ZM19.8312 1.6027C4.96372 30.6201 -4.53768 63.6478 3.55162 91.0557C11.7106 118.7 37.5412 140.014 91.8359 145.991L92.1641 143.009C38.5178 137.104 14.1116 116.237 6.42891 90.2065C-1.3234 63.9404 7.72882 31.8023 22.5012 2.97069L19.8312 1.6027Z" fill="#648E38"/>
</svg>
